<?xml version="1.0" encoding="UTF-8"?><svg xmlns="http://www.w3.org/2000/svg" xmlns:xlink="http://www.w3.org/1999/xlink" viewBox="0 0 500 500"><defs><clipPath id="d"><path d="m250,0c138.07,0,250,111.93,250,250s-111.93,250-250,250S0,388.07,0,250,111.93,0,250,0" style="fill:none; stroke-width:0px;"/></clipPath><clipPath id="e"><path d="m57.67,67.01l98.36-230.87c.51-1.08,1.29-2.01,2.26-2.72l159.71-98.49c5.92-3.56,12.96,2.48,10.34,8.87l-38.67,99.7L372.08,28.07l28.42-73.88c2.46-5.69,6.46-10.59,11.55-14.13l57.31-34.94c5.55-3.18,12.17,1.94,10.49,8.11l-12.14,80.01,61.9,361.7c4.24,24.38-8.39,48.57-30.81,59.03l-264.42,123.4c-14.76,6.89-31.81,6.85-46.54-.09l-261.77-123.44c-22.1-10.42-34.63-34.22-30.72-58.34L-55.44-26.87c1.81-7.12,6.36-13.24,12.67-17l80.21-47.86c5.85-3.49,12.81,2.37,10.38,8.72L29.48-4.5l28.19,71.51Z" style="fill:none; stroke-width:0px;"/></clipPath><linearGradient id="f" x1="212.76" y1="548.26" x2="212.76" y2="-102.34" gradientUnits="userSpaceOnUse"><stop offset=".7" stop-color="#cfe4f3"/><stop offset="1" stop-color="#6bc3f9"/></linearGradient><linearGradient id="g" x1="218.98" y1="548.26" x2="218.98" y2="-276.22" gradientUnits="userSpaceOnUse"><stop offset="0" stop-color="#b18cf9"/><stop offset="1" stop-color="#4f3dd5"/></linearGradient><linearGradient id="h" x1="212.86" y1="547.93" x2="212.86" y2="-104.59" gradientUnits="userSpaceOnUse"><stop offset="0" stop-color="#b1d6f9"/><stop offset="1" stop-color="#9193ee"/></linearGradient><linearGradient id="i" x1="212.76" y1="548.26" x2="212.76" y2="-102.34" gradientUnits="userSpaceOnUse"><stop offset="0" stop-color="#cfe4f3"/><stop offset="1" stop-color="#6bc3f9"/></linearGradient><linearGradient id="j" x1="90.77" y1="554.94" x2="90.77" y2="-101.09" xlink:href="#h"/><linearGradient id="k" x1="212.76" y1="548.26" x2="212.76" y2="-85.06" xlink:href="#h"/><linearGradient id="l" x1="-150.87" y1="501.33" x2="579.49" y2="-229.03" gradientUnits="userSpaceOnUse"><stop offset="0" stop-color="#a684f8"/><stop offset=".5" stop-color="#8272fa"/><stop offset="1" stop-color="#90aefb"/></linearGradient></defs><g style="isolation:isolate;"><g id="b"><g id="c"><g style="clip-path:url(#d);"><g style="clip-path:url(#e);"><polygon points="55.22 -102.34 29.48 -4.5 60.42 73.66 536.79 396.26 211.09 548.26 -111.26 396.26 -54.76 -36.57 55.22 -102.34" style="fill:url(#f); stroke-width:0px;"/><path d="m289.66-156.51l46.88-119.72-173.03,103.92c-5.6,4.07-9.93,9.63-12.51,16.05L60.94,59.24-98.82,409.42l309.91,138.84,325.71-152L289.66-156.51Z" style="fill:url(#g); stroke-width:0px;"/><polygon points="404.36 -54.84 295.12 232.62 -111.17 395.93 211.19 547.93 536.89 395.93 467.81 -7.08 483.52 -104.59 404.36 -54.84" style="fill:url(#h); stroke-width:0px;"/><polygon points="55.22 -102.34 29.48 -4.5 57.67 67.01 536.79 396.26 211.09 548.26 -111.26 396.26 -55.43 -38.77 55.22 -102.34" style="fill:url(#i); mix-blend-mode:multiply; stroke-width:0px;"/><polygon points="295.84 230.71 -114.31 397.23 208.06 554.94 211.09 548.26 295.84 230.71" style="fill:url(#j); stroke-width:0px;"/><polygon points="-111.27 396.26 211.09 548.26 536.79 396.26 295.84 230.71 -111.27 396.26" style="fill:url(#k); mix-blend-mode:screen; opacity:.7; stroke-width:0px;"/><rect x="-108.45" y="-266.15" width="640.2" height="809.91" style="fill:url(#l); mix-blend-mode:hue; stroke-width:0px;"/></g></g><path d="m157.64,316.49c-1.28.57-2.42,1.39-3.37,2.43l-48.79,53.72c-.66.72-1.09,1.62-1.25,2.58-.16.96-.03,1.95.36,2.84.39.89,1.04,1.65,1.85,2.19.82.53,1.77.82,2.75.82l229.09.19c1.4,0,2.78-.29,4.06-.86,1.28-.57,2.43-1.39,3.37-2.43l48.79-53.72c.66-.72,1.09-1.62,1.25-2.58.16-.96.03-1.95-.36-2.84-.39-.89-1.04-1.65-1.85-2.19-.82-.53-1.77-.82-2.75-.82l-229.1-.19c-1.4,0-2.78.29-4.06.86m-48.44-99.14c-.98,0-1.93.29-2.75.82s-1.46,1.29-1.85,2.19-.52,1.88-.36,2.84c.16.96.59,1.86,1.25,2.58l48.79,53.75c.94,1.04,2.09,1.86,3.37,2.43,1.28.57,2.66.86,4.06.86l229.09-.19c.98,0,1.93-.29,2.75-.82.82-.53,1.46-1.29,1.85-2.19.39-.89.52-1.88.36-2.84-.16-.96-.59-1.86-1.25-2.58l-48.79-53.75c-.94-1.04-2.09-1.86-3.36-2.43s-2.66-.86-4.06-.86l-229.1.19Zm52.5-98.59c-1.4,0-2.78.29-4.06.86-1.28.57-2.42,1.39-3.37,2.43l-48.79,53.72c-.66.72-1.09,1.62-1.25,2.58-.16.96-.03,1.95.36,2.84s1.04,1.65,1.85,2.19c.82.53,1.77.82,2.75.82l229.09.19c1.4,0,2.78-.29,4.06-.86,1.28-.57,2.43-1.39,3.37-2.43l48.79-53.72c.66-.72,1.09-1.62,1.25-2.58.16-.96.03-1.95-.36-2.84-.39-.89-1.04-1.65-1.85-2.19-.82-.53-1.77-.82-2.75-.82l-229.1-.19Z" style="fill:#fff;"/></g></g></g></svg>